<svg version="1.1" baseProfile="tiny" id="bolt-svg" xmlns="http://www.w3.org/2000/svg" xmlns:xlink="http://www.w3.org/1999/xlink"
	 x="0px" y="0px" viewBox="0 0 140.4 230.2" xml:space="preserve">
<path fill="#000" d="M102.1,0c0,0-2.9,19.7-6.7,38.8c-3.6,18.1-8.2,35.8-8.2,35.8l53.2-7.5c0,0-13.5,34.7-32.9,71.4
	c-23.3,44.1-55.4,91.7-55.4,91.7s0.7-35,1.4-65.2c0.4-20.7,2.9-41.7,2.9-41.7s-21.3,4.9-37.7,6.7c-8.6,1-15.8,1.1-18,1.1
	c-0.4,0-0.7,0-0.7,0s-0.3-25.3,1.6-50.8c1.9-25.7,5.9-51.5,5.9-51.5s24.6-10,47.6-17C79.3,4.4,102.1,0,102.1,0"/>
</svg>