<?xml version="1.0" encoding="iso-8859-1"?>
<!-- Generator: Adobe Illustrator 18.1.1, SVG Export Plug-In . SVG Version: 6.00 Build 0)  -->
<svg version="1.1" id="Capa_1" xmlns="http://www.w3.org/2000/svg" xmlns:xlink="http://www.w3.org/1999/xlink" x="0px" y="0px"
	 viewBox="0 0 478.166 478.166" style="enable-background:new 0 0 478.166 478.166;" xml:space="preserve">
<g>
	<path id="Amazon_3_" d="M282.875,133.588c-11.576,0.916-25.044,1.833-38.393,3.646c-20.402,2.61-40.903,6.216-57.758,14.265
		c-32.914,13.329-55.228,41.859-55.228,83.818c0,52.499,33.83,79.355,76.526,79.355c14.265,0,25.841-1.853,36.46-4.562
		c17.015-5.26,31.14-15.022,48.175-33.033c9.802,13.488,12.333,19.565,29.228,33.97c4.523,1.793,9.025,1.793,12.512-0.936
		c10.679-8.946,29.387-24.865,39.19-33.97c4.543-3.467,3.686-8.906,0.916-13.229c-9.802-12.572-19.565-23.171-19.565-47.199v-80.272
		c0-33.93,2.749-65.15-22.294-88.201c-20.342-18.748-52.399-25.921-77.303-25.921c-3.646,0-7.153,0-10.699,0
		c-45.446,2.73-93.382,22.314-104.14,78.479c-1.793,7.113,3.526,9.802,7.073,10.659l49.829,6.236c5.32-0.877,8.009-5.34,8.866-9.763
		c4.523-19.585,20.442-29.427,38.213-31.16c0.897,0,1.833,0,3.666,0c10.579,0,22.255,4.403,28.391,13.349
		c7.033,10.699,6.316,24.964,6.316,37.436L282.875,133.588L282.875,133.588z M282.875,185.389c0,20.521,0.717,36.48-9.802,54.292
		c-6.316,12.492-17.015,20.541-28.59,23.231c-1.713,0-4.323,0.916-7.073,0.916c-19.565,0-31.14-15.202-31.14-37.496
		c0-28.491,16.915-41.859,38.213-48.115c11.556-2.67,24.944-3.566,38.393-3.566C282.875,174.65,282.875,185.389,282.875,185.389z
		 M446.806,435.628c21.677-18.489,30.901-51.841,31.36-69.334v-2.949c0-3.746-0.976-6.595-1.913-8.089
		c-4.443-5.399-36.321-10.241-63.895-2.092c-7.671,2.61-14.524,5.917-20.641,10.281c-4.981,3.327-4.044,7.83,0.936,7.272
		c5.24-0.897,12.113-1.415,19.724-2.53c16.935-1.415,36.839-1.853,41.56,4.483c6.854,8.089-7.651,44.051-14.046,59.452
		C438,437.083,442.303,438.995,446.806,435.628z M2.432,366.295c62.301,56.782,144.485,90.552,236.413,90.552
		c57.121,0,122.689-15.919,173.474-46.382c6.973-3.766,13.568-8.288,19.924-13.11c8.627-6.276,0.956-15.879-7.75-12.074
		c-3.805,1.415-8.328,3.287-12.173,4.782C356.851,411.919,298.336,422.1,244.164,422.1c-86.109,0-169.25-23.769-236.452-62.998
		C1.396,355.735-2.948,361.951,2.432,366.295z"/>
</g>
<g>
</g>
<g>
</g>
<g>
</g>
<g>
</g>
<g>
</g>
<g>
</g>
<g>
</g>
<g>
</g>
<g>
</g>
<g>
</g>
<g>
</g>
<g>
</g>
<g>
</g>
<g>
</g>
<g>
</g>
</svg>
