<svg version="1.1" baseProfile="tiny" id="Layer_1" xmlns="http://www.w3.org/2000/svg" xmlns:xlink="http://www.w3.org/1999/xlink"
	 x="0px" y="0px" viewBox="0 0 77 77" xml:space="preserve">
<path d="M24,70.3c-9.1,0-17.5-2.7-24.6-7.2c1.3,0.1,2.5,0.2,3.8,0.2c7.5,0,14.5-2.6,20-6.9c-7-0.1-13-4.8-15-11.2
	c1,0.2,2,0.3,3,0.3c1.5,0,2.9-0.2,4.2-0.6C8,43.5,2.5,37,2.5,29.3c0-0.1,0-0.1,0-0.2c2.2,1.2,4.6,1.9,7.3,2
	c-4.3-2.9-7.1-7.8-7.1-13.4c0-2.9,0.8-5.7,2.2-8.1c7.9,9.7,19.8,16.1,33.1,16.8c-0.3-1.2-0.4-2.4-0.4-3.7c0-8.9,7.2-16.1,16.1-16.1
	c4.6,0,8.8,2,11.7,5.1c3.7-0.7,7.1-2.1,10.2-3.9c-1.2,3.8-3.7,6.9-7.1,8.9c3.2-0.4,6.3-1.3,9.2-2.5c-2.2,3.2-4.9,6.1-8,8.3
	c0,0.7,0,1.4,0,2.1C69.7,45.8,53.5,70.3,24,70.3"/>
</svg>
