<?xml version="1.0" encoding="iso-8859-1"?>
<!-- Generator: Adobe Illustrator 18.0.0, SVG Export Plug-In . SVG Version: 6.00 Build 0)  -->
<!DOCTYPE svg PUBLIC "-//W3C//DTD SVG 1.1//EN" "http://www.w3.org/Graphics/SVG/1.1/DTD/svg11.dtd">
<svg version="1.1" id="Capa_1" xmlns="http://www.w3.org/2000/svg" xmlns:xlink="http://www.w3.org/1999/xlink" x="0px" y="0px"
	 viewBox="0 0 300 300" style="enable-background:new 0 0 300 300;" xml:space="preserve">
<path d="M261.579,49.864l-2.106-2.294C232.082,18.315,193.143,0,150,0c-17.166,0-33.664,2.907-49.038,8.24L99.4,8.791
	C49.188,26.839,11.303,70.949,2.14,124.729c-0.011,0.051-0.027,0.1-0.037,0.151c-0.033,0.171-0.046,0.341-0.073,0.512
	C0.702,133.402,0,141.62,0,150c0,35.76,12.586,68.632,33.551,94.435c0.01,0.015,1.746,2.109,1.746,2.109
	C62.835,279.208,104.032,300,150,300c17.371,0,34.058-2.978,49.588-8.434c0.409-0.126,0.811-0.266,1.204-0.425
	c49.269-17.785,86.632-60.673,96.577-113.148c0.026-0.128,0.052-0.255,0.074-0.383C299.115,168.657,300,159.431,300,150
	C300,111.55,285.452,76.438,261.579,49.864z M150,30c30.85,0,59.016,11.705,80.297,30.903
	c-14.903,20.417-35.74,33.843-58.563,42.503c-3.805-8.884-7.605-16.936-11.248-24.113c-10.561-20.802-20.929-36.741-29.015-47.862
	C137.513,30.491,143.699,30,150,30z M100.736,40.584c8.947,11.182,25.92,34.926,41.948,71.28
	c-42.085,9.028-85.24,6.035-107.548,3.387C45.228,81.96,69.419,54.74,100.736,40.584z M30,150c0-1.705,0.045-3.399,0.115-5.087
	c11.955,1.495,29.682,3.118,50.351,3.118c10.008,0,20.708-0.381,31.766-1.341c14.739-1.28,28.634-3.492,41.664-6.579
	c2.865,8.065,5.62,16.579,8.2,25.56c-13.517,3.932-27.477,8.844-41.867,14.745c-31.025,12.72-56.322,26.958-70.444,35.512
	C37.287,196.993,30,174.333,30,150z M150,270c-30.873,0-59.058-11.722-80.345-30.946c20.018-11.762,57.599-31.811,99.783-44.21
	c4.703,21.642,8.265,45.477,10.066,71.482C170.063,268.722,160.178,270,150,270z M208.678,254.641
	c-2.107-24.185-5.666-46.483-10.127-66.84c22.086-4.117,44.601-5.342,65.867-1.608C255.15,215.425,234.968,239.841,208.678,254.641z
	 M269.811,156.67c-23.811-4.235-50.07-3.583-78.585,1.922c-2.736-9.632-5.644-18.711-8.64-27.251
	c28.155-10.772,50.939-26.637,67.658-47.223C262.725,103.042,270,125.686,270,150C270,152.238,269.934,154.461,269.811,156.67z"/>
<g>
</g>
<g>
</g>
<g>
</g>
<g>
</g>
<g>
</g>
<g>
</g>
<g>
</g>
<g>
</g>
<g>
</g>
<g>
</g>
<g>
</g>
<g>
</g>
<g>
</g>
<g>
</g>
<g>
</g>
</svg>
